<svg width="34" height="34" viewBox="0 0 34 34" fill="none" xmlns="http://www.w3.org/2000/svg">
<path d="M29.4844 26.2969H6.64062V5.57812C6.64062 5.43203 6.52109 5.3125 6.375 5.3125H4.51562C4.36953 5.3125 4.25 5.43203 4.25 5.57812V28.4219C4.25 28.568 4.36953 28.6875 4.51562 28.6875H29.4844C29.6305 28.6875 29.75 28.568 29.75 28.4219V26.5625C29.75 26.4164 29.6305 26.2969 29.4844 26.2969ZM9.03125 24.1719H26.8281C26.9742 24.1719 27.0938 24.0523 27.0938 23.9062V9.42969C27.0938 9.19062 26.8049 9.07441 26.6389 9.24043L19.6562 16.223L15.4926 12.1059C15.4427 12.0564 15.3752 12.0287 15.305 12.0287C15.2347 12.0287 15.1673 12.0564 15.1174 12.1059L8.84199 18.4012C8.81762 18.4256 8.79832 18.4546 8.78521 18.4865C8.77211 18.5184 8.76545 18.5526 8.76562 18.5871V23.9062C8.76562 24.0523 8.88516 24.1719 9.03125 24.1719Z" fill="white"/>
</svg>
