<svg width="34" height="34" viewBox="0 0 34 34" fill="none" xmlns="http://www.w3.org/2000/svg">
<path d="M26.5625 21.7812C25.5741 21.7825 24.6104 22.0895 23.8034 22.6602C22.9965 23.2309 22.3859 24.0373 22.0554 24.9688H9.5625C8.57623 24.9688 7.63035 24.577 6.93295 23.8796C6.23555 23.1822 5.84375 22.2363 5.84375 21.25C5.84375 20.2637 6.23555 19.3178 6.93295 18.6204C7.63035 17.923 8.57623 17.5312 9.5625 17.5312H22.3125C23.8624 17.5312 25.3487 16.9156 26.4447 15.8197C27.5406 14.7237 28.1562 13.2374 28.1562 11.6875C28.1562 10.1376 27.5406 8.65126 26.4447 7.55534C25.3487 6.45943 23.8624 5.84375 22.3125 5.84375H9.5625C9.13981 5.84375 8.73443 6.01166 8.43555 6.31055C8.13666 6.60943 7.96875 7.01481 7.96875 7.4375C7.96875 7.86019 8.13666 8.26557 8.43555 8.56445C8.73443 8.86334 9.13981 9.03125 9.5625 9.03125H22.3125C23.017 9.03125 23.6926 9.3111 24.1908 9.80925C24.6889 10.3074 24.9688 10.983 24.9688 11.6875C24.9688 12.392 24.6889 13.0676 24.1908 13.5658C23.6926 14.0639 23.017 14.3438 22.3125 14.3438H9.5625C7.73085 14.3438 5.97422 15.0714 4.67904 16.3665C3.38387 17.6617 2.65625 19.4183 2.65625 21.25C2.65625 23.0817 3.38387 24.8383 4.67904 26.1335C5.97422 27.4286 7.73085 28.1562 9.5625 28.1562H22.0554C22.3476 28.9826 22.8614 29.7127 23.5405 30.2668C24.2197 30.8209 25.0381 31.1776 25.9063 31.2979C26.7745 31.4183 27.6591 31.2977 28.4634 30.9492C29.2676 30.6008 29.9607 30.038 30.4667 29.3223C30.9727 28.6066 31.2722 27.7655 31.3325 26.8911C31.3928 26.0167 31.2115 25.1425 30.8085 24.3641C30.4055 23.5858 29.7963 22.9331 29.0475 22.4776C28.2987 22.0221 27.439 21.7812 26.5625 21.7812ZM26.5625 28.1562C26.2473 28.1562 25.9392 28.0628 25.6771 27.8877C25.415 27.7125 25.2107 27.4636 25.0901 27.1724C24.9694 26.8812 24.9379 26.5607 24.9994 26.2516C25.0609 25.9424 25.2127 25.6584 25.4355 25.4355C25.6584 25.2127 25.9424 25.0609 26.2516 24.9994C26.5607 24.9379 26.8812 24.9694 27.1724 25.0901C27.4636 25.2107 27.7125 25.415 27.8877 25.6771C28.0628 25.9392 28.1562 26.2473 28.1562 26.5625C28.1558 26.985 27.9877 27.3902 27.6889 27.6889C27.3902 27.9877 26.985 28.1558 26.5625 28.1562Z" fill="white"/>
</svg>
